<svg width="25" height="26" viewBox="0 0 25 26" fill="none" xmlns="http://www.w3.org/2000/svg">
<path d="M12.5 24.375C9.59919 24.375 6.8172 23.1766 4.76602 21.0433C2.71484 18.9101 1.5625 16.0168 1.5625 13C1.5625 9.98316 2.71484 7.08989 4.76602 4.95666C6.8172 2.82343 9.59919 1.625 12.5 1.625C15.4008 1.625 18.1828 2.82343 20.234 4.95666C22.2852 7.08989 23.4375 9.98316 23.4375 13C23.4375 16.0168 22.2852 18.9101 20.234 21.0433C18.1828 23.1766 15.4008 24.375 12.5 24.375ZM12.5 26C15.8152 26 18.9946 24.6304 21.3388 22.1924C23.683 19.7544 25 16.4478 25 13C25 9.55219 23.683 6.24558 21.3388 3.80761C18.9946 1.36964 15.8152 0 12.5 0C9.18479 0 6.00537 1.36964 3.66117 3.80761C1.31696 6.24558 0 9.55219 0 13C0 16.4478 1.31696 19.7544 3.66117 22.1924C6.00537 24.6304 9.18479 26 12.5 26Z" fill="#FF4242"/>
<path d="M7.25931 7.54974C7.33188 7.47407 7.41809 7.41404 7.513 7.37308C7.60792 7.33212 7.70967 7.31104 7.81243 7.31104C7.91519 7.31104 8.01694 7.33212 8.11186 7.37308C8.20677 7.41404 8.29299 7.47407 8.36556 7.54974L12.4999 11.8511L16.6343 7.54974C16.7069 7.47419 16.7932 7.41427 16.8881 7.37339C16.983 7.3325 17.0847 7.31146 17.1874 7.31146C17.2902 7.31146 17.3919 7.3325 17.4868 7.37339C17.5817 7.41427 17.6679 7.47419 17.7406 7.54974C17.8132 7.62528 17.8708 7.71496 17.9101 7.81366C17.9494 7.91237 17.9697 8.01815 17.9697 8.12499C17.9697 8.23182 17.9494 8.33761 17.9101 8.43631C17.8708 8.53501 17.8132 8.62469 17.7406 8.70024L13.6046 13L17.7406 17.2997C17.8132 17.3753 17.8708 17.465 17.9101 17.5637C17.9494 17.6624 17.9697 17.7682 17.9697 17.875C17.9697 17.9818 17.9494 18.0876 17.9101 18.1863C17.8708 18.285 17.8132 18.3747 17.7406 18.4502C17.6679 18.5258 17.5817 18.5857 17.4868 18.6266C17.3919 18.6675 17.2902 18.6885 17.1874 18.6885C17.0847 18.6885 16.983 18.6675 16.8881 18.6266C16.7932 18.5857 16.7069 18.5258 16.6343 18.4502L12.4999 14.1489L8.36556 18.4502C8.29292 18.5258 8.20669 18.5857 8.11178 18.6266C8.01688 18.6675 7.91516 18.6885 7.81243 18.6885C7.70971 18.6885 7.60799 18.6675 7.51308 18.6266C7.41818 18.5857 7.33194 18.5258 7.25931 18.4502C7.18667 18.3747 7.12905 18.285 7.08974 18.1863C7.05043 18.0876 7.03019 17.9818 7.03019 17.875C7.03019 17.7682 7.05043 17.6624 7.08974 17.5637C7.12905 17.465 7.18667 17.3753 7.25931 17.2997L11.3952 13L7.25931 8.70024C7.18655 8.62476 7.12883 8.5351 7.08944 8.43639C7.05006 8.33768 7.02979 8.23186 7.02979 8.12499C7.02979 8.01812 7.05006 7.91229 7.08944 7.81358C7.12883 7.71487 7.18655 7.62521 7.25931 7.54974Z" fill="#FF4242"/>
</svg>
