<svg width="19" height="13" viewBox="0 0 19 13" fill="none" xmlns="http://www.w3.org/2000/svg">
<path d="M9.49984 0.647583C5.5415 0.647583 2.16109 3.16845 0.791504 6.72685C2.16109 10.2852 5.5415 12.8061 9.49984 12.8061C13.4582 12.8061 16.8386 10.2852 18.2082 6.72685C16.8386 3.16845 13.4582 0.647583 9.49984 0.647583ZM9.49984 10.7797C7.31484 10.7797 5.5415 8.96402 5.5415 6.72685C5.5415 4.48968 7.31484 2.674 9.49984 2.674C11.6848 2.674 13.4582 4.48968 13.4582 6.72685C13.4582 8.96402 11.6848 10.7797 9.49984 10.7797ZM9.49984 4.29514C8.18567 4.29514 7.12484 5.3813 7.12484 6.72685C7.12484 8.07239 8.18567 9.15855 9.49984 9.15855C10.814 9.15855 11.8748 8.07239 11.8748 6.72685C11.8748 5.3813 10.814 4.29514 9.49984 4.29514Z" fill="#5A5E68"/>
</svg>
