<svg width="39" height="39" viewBox="0 0 39 39" fill="none" xmlns="http://www.w3.org/2000/svg">
<path d="M19.5456 3.23563C10.6152 3.23563 3.36743 10.4834 3.36743 19.4138C3.36743 28.3441 10.6152 35.5919 19.5456 35.5919C28.4759 35.5919 35.7238 28.3441 35.7238 19.4138C35.7238 10.4834 28.4759 3.23563 19.5456 3.23563ZM21.8267 29.2663V32.3563H17.5071V29.2339C14.7407 28.6515 12.3948 26.8719 12.2169 23.7334H15.3878C15.5496 25.4321 16.7144 26.7587 19.675 26.7587C22.8459 26.7587 23.5578 25.1732 23.5578 24.1863C23.5578 22.8436 22.8459 21.5817 19.2382 20.7242C15.226 19.7535 12.4757 18.1034 12.4757 14.7868C12.4757 12.0042 14.7245 10.1922 17.5071 9.59364V6.47126H21.8267V9.626C24.8358 10.354 26.3404 12.6351 26.4375 15.1104H23.2666C23.1857 13.3146 22.2312 12.0851 19.675 12.0851C17.2483 12.0851 15.7923 13.1852 15.7923 14.7383C15.7923 16.0973 16.8438 16.9871 20.1118 17.8283C23.3798 18.6696 26.8743 20.0771 26.8743 24.154C26.8581 27.1146 24.6417 28.7324 21.8267 29.2663Z" fill="#4DD784"/>
</svg>
