<svg width="41" height="27" viewBox="0 0 41 27" fill="none" xmlns="http://www.w3.org/2000/svg">
<path d="M28.125 11.25C31.2375 11.25 33.7313 8.7375 33.7313 5.625C33.7313 2.5125 31.2375 0 28.125 0C25.0125 0 22.5 2.5125 22.5 5.625C22.5 8.7375 25.0125 11.25 28.125 11.25ZM13.125 11.25C16.2375 11.25 18.7312 8.7375 18.7312 5.625C18.7312 2.5125 16.2375 0 13.125 0C10.0125 0 7.5 2.5125 7.5 5.625C7.5 8.7375 10.0125 11.25 13.125 11.25ZM13.125 15C8.75625 15 0 17.1938 0 21.5625V26.25H26.25V21.5625C26.25 17.1938 17.4937 15 13.125 15ZM28.125 15C27.5812 15 26.9625 15.0375 26.3062 15.0938C28.4812 16.6688 30 18.7875 30 21.5625V26.25H41.25V21.5625C41.25 17.1938 32.4938 15 28.125 15Z" fill="#4DD784"/>
</svg>
