<svg width="40" height="39" viewBox="0 0 40 39" fill="none" xmlns="http://www.w3.org/2000/svg">
<path d="M26.07 17.796C27.4103 17.796 28.4968 16.7095 28.4968 15.3693C28.4968 14.029 27.4103 12.9425 26.07 12.9425C24.7298 12.9425 23.6433 14.029 23.6433 15.3693C23.6433 16.7095 24.7298 17.796 26.07 17.796Z" fill="#4DD784"/>
<path d="M14.7453 17.796C16.0856 17.796 17.1721 16.7095 17.1721 15.3693C17.1721 14.029 16.0856 12.9425 14.7453 12.9425C13.4051 12.9425 12.3186 14.029 12.3186 15.3693C12.3186 16.7095 13.4051 17.796 14.7453 17.796Z" fill="#4DD784"/>
<path d="M26.07 17.796C27.4103 17.796 28.4968 16.7095 28.4968 15.3693C28.4968 14.029 27.4103 12.9425 26.07 12.9425C24.7298 12.9425 23.6433 14.029 23.6433 15.3693C23.6433 16.7095 24.7298 17.796 26.07 17.796Z" fill="#4DD784"/>
<path d="M14.7453 17.796C16.0856 17.796 17.1721 16.7095 17.1721 15.3693C17.1721 14.029 16.0856 12.9425 14.7453 12.9425C13.4051 12.9425 12.3186 14.029 12.3186 15.3693C12.3186 16.7095 13.4051 17.796 14.7453 17.796Z" fill="#4DD784"/>
<path d="M20.3915 3.23563C11.4611 3.23563 4.22949 10.4834 4.22949 19.4138C4.22949 28.3441 11.4611 35.5919 20.3915 35.5919C29.338 35.5919 36.5858 28.3441 36.5858 19.4138C36.5858 10.4834 29.338 3.23563 20.3915 3.23563ZM20.4077 32.3563C13.2569 32.3563 7.46512 26.5645 7.46512 19.4138C7.46512 12.263 13.2569 6.47126 20.4077 6.47126C27.5584 6.47126 33.3502 12.263 33.3502 19.4138C33.3502 26.5645 27.5584 32.3563 20.4077 32.3563ZM20.4077 28.3118C24.1772 28.3118 27.3966 25.9659 28.6909 22.6494H25.9891C24.8728 24.5746 22.802 25.8851 20.4077 25.8851C18.0133 25.8851 15.9587 24.5746 14.8262 22.6494H12.1244C13.4187 25.9659 16.6381 28.3118 20.4077 28.3118Z" fill="#4DD784"/>
</svg>
