<svg width="30" height="30" viewBox="0 0 30 30" fill="none" xmlns="http://www.w3.org/2000/svg">
<path d="M14.9998 1.66675C12.3628 1.66675 9.7849 2.44873 7.59224 3.91382C5.39958 5.37891 3.69062 7.46129 2.68145 9.89764C1.67228 12.334 1.40824 15.0149 1.92271 17.6013C2.43718 20.1877 3.70705 22.5635 5.57175 24.4282C7.43645 26.2929 9.81223 27.5628 12.3986 28.0772C14.9851 28.5917 17.6659 28.3276 20.1023 27.3185C22.5386 26.3093 24.621 24.6003 26.0861 22.4077C27.5512 20.215 28.3332 17.6372 28.3332 15.0001C28.3332 11.4639 26.9284 8.07248 24.4279 5.57199C21.9275 3.07151 18.5361 1.66675 14.9998 1.66675ZM14.9998 26.6667C12.6924 26.6667 10.4368 25.9825 8.51819 24.7006C6.59962 23.4186 5.10427 21.5965 4.22125 19.4647C3.33823 17.3329 3.10719 14.9871 3.55735 12.724C4.00751 10.4609 5.11865 8.38211 6.75026 6.7505C8.38188 5.11889 10.4607 4.00775 12.7238 3.55759C14.9869 3.10743 17.3327 3.33846 19.4645 4.22149C21.5963 5.10451 23.4184 6.59985 24.7003 8.51843C25.9823 10.437 26.6665 12.6926 26.6665 15.0001C26.6665 18.0943 25.4373 21.0617 23.2494 23.2497C21.0615 25.4376 18.094 26.6667 14.9998 26.6667Z" fill="#4DD784"/>
<path d="M23.3334 10.0834C23.1773 9.92818 22.9661 9.84106 22.7459 9.84106C22.5258 9.84106 22.3146 9.92818 22.1584 10.0834L12.9084 19.2917L7.90844 14.2917C7.75594 14.1271 7.54428 14.0297 7.32002 14.0211C7.09576 14.0125 6.87727 14.0934 6.71261 14.2459C6.54795 14.3984 6.45062 14.6101 6.44203 14.8343C6.43343 15.0586 6.51428 15.2771 6.66678 15.4417L12.9084 21.6667L23.3334 11.2667C23.4116 11.1893 23.4735 11.0971 23.5159 10.9955C23.5582 10.894 23.5799 10.7851 23.5799 10.6751C23.5799 10.565 23.5582 10.4561 23.5159 10.3546C23.4735 10.253 23.4116 10.1609 23.3334 10.0834Z" fill="#4DD784"/>
</svg>
